<svg xmlns="http://www.w3.org/2000/svg" version="1.1" xmlns:xlink="http://www.w3.org/1999/xlink" xmlns:svgjs="http://svgjs.dev/svgjs" width="1000" height="1125" viewBox="0 0 1000 1125"><g transform="matrix(1,0,0,1,1.7053025658242404e-13,0)"><svg viewBox="0 0 320 360" data-background-color="#282634" preserveAspectRatio="xMidYMid meet" height="1125" width="1000" xmlns="http://www.w3.org/2000/svg" xmlns:xlink="http://www.w3.org/1999/xlink"><g id="tight-bounds" transform="matrix(1,0,0,1,0,0)"><svg viewBox="0 0 320 360" height="360" width="320"><g><svg></svg></g><g><svg viewBox="0 0 320 360" height="360" width="320"><g><path xmlns="http://www.w3.org/2000/svg" d="M20.961 227.22l3.726 4.658-1.863-6.056c-0.466-2.795-3.726 0.466-1.863 1.398M25.153 224.425c1.397 2.329 2.795 4.658 2.795 6.987 0 3.261 2.795 4.658 5.123 5.589-3.261-3.726-5.124-13.974-7.918-12.576M204.017 26.929c7.918 0 15.371-0.932 23.756 0.931 20.495 5.124 37.729 15.371 49.374 29.811l32.606 52.169c1.397 13.042 4.192 27.482 3.726 43.319 3.261 0 2.795-4.658 6.521-5.59-3.726 9.316-5.59 20.961-6.521 34.469-2.329-7.453 0-18.632 0.466-24.687-3.261 5.124-5.124 1.397-5.124-0.932 0.466-3.726-1.397-3.261-2.795-4.658-5.124-4.658-8.384-9.782-12.11-17.7 2.329-6.055 2.795-14.905-4.658-19.563-2.329-1.397-5.124-3.726-6.521-7.453-1.863-5.124-5.124-11.179-4.193-19.097 0.466-2.329-6.987 5.124-11.179 1.863-18.166-12.576-36.332-27.016-58.224-39.127-11.645 0-20.029-4.192-24.221-9.316-3.726-4.658-0.932-10.713 4.658-11.179 3.261 0 6.987-0.932 9.782 0.932 0.466-1.863 2.329-4.192 4.657-4.192M157.904 16.215l0.932 0.466c4.658 0.932 6.987 7.453 12.11 5.124 0 3.261 0.466 6.521-0.466 8.85-1.397 3.726-5.59 3.726-8.85 3.726-31.208-1.863-49.374 11.179-68.471 22.358-5.124 3.261-10.713 5.59-14.906 9.782-20.029 18.632-41.921 35.866-47.045 70.335l-4.192 38.195c-0.466 4.192-5.124 8.384-4.192 13.508l3.26 22.824c-3.261-3.261-5.124 0.932-4.192 2.795 0.466 1.397 2.329 6.055 5.124 1.863 3.726 6.987 7.453 20.495 12.576 26.55 15.837 18.632 36.332 35.4 53.101 52.169 4.192-0.932 7.453-0.932 8.384-3.727 1.397 2.795-1.397 5.59-3.726 6.056 7.453 4.658 15.837 8.85 27.016 9.781 14.44 0.932 27.948 3.261 40.524 6.522 6.521-1.863 13.042-2.795 20.029-3.261 2.329 0 3.726-3.726 6.521-4.658l0.466-4.658c2.795 4.192 2.329-1.397 0.466-4.192 3.261 2.795 4.192 5.124 5.589 6.987 0-1.397 3.726-6.521 3.727-0.466l0.931-6.055c1.397-0.932 1.863 5.124 3.261 0.931 1.397-4.192 4.192-0.932 6.987-2.329-0.932 1.863-0.466 5.59 2.794 3.261l3.727-3.261c2.329 5.59 6.055 3.261 7.918 2.329 20.495-13.042 40.99-28.413 60.553-43.784l-0.466 6.055 2.329-7.453c2.329 2.329 4.192 0.466 5.124-0.931 2.795-4.658 6.521-9.316 12.577-13.508-7.453 20.029-16.303 35.866-27.482 48.908l-4.658 5.59c0 3.261-0.932 7.453-4.658 7.918-1.863 0.466-5.59-0.932-8.384 1.863-1.397 1.863 3.261 5.59-0.466 2.795-3.261-2.329-6.521 0-10.248 0.932-2.795 0.932 1.863 3.726 2.795 5.589 0.932 1.863 1.863 3.726 1.398 6.056l-5.124-5.59c-6.055 3.261-9.782 9.316-14.906 13.974-2.329 1.863-1.397 5.124-1.397 7.918-3.261 0-6.987-0.932-8.85 0.932-1.397 1.863-0.932 4.658-0.932 7.453-4.658-0.466-5.124-7.453-9.315-6.056-4.192 0.932-8.85 1.397-12.577 3.727 2.795 5.59-4.658 2.329-3.726 3.26-6.987-4.192-13.042-7.453-20.495-4.658-15.837-5.124-35.4-2.795-49.84-0.931 0-2.329 0.466-4.658-0.466-5.124-0.932 2.329-3.726 1.397-3.26 1.397-8.85-6.055-17.7-9.782-27.016-14.905-8.384 0.932-16.303-3.261-18.632-5.59-6.521-6.055-13.974-2.795-20.029-4.192-13.042-3.261-17.7-16.769-19.098-26.084-0.932-4.658-4.658-6.521-6.055-6.056-6.055-19.563-15.371-37.263-22.824-55.429-1.863-4.658-1.397-9.316-1.397-14.44 2.329 0.932 4.658 0.466 4.192-2.794-2.329-15.371-7.918-27.016-13.974-38.195 3.261-15.837 3.726-34.469 11.179-48.443 6.521-12.576 18.632-19.098 27.016-29.811 2.795-3.726 2.795-8.85 5.59-12.11 9.316-9.316 18.632-19.098 28.879-27.482 4.658-3.726 10.247 0 17.234-1.397 2.329-8.384 11.645-15.837 20.495-13.508 3.726 0.932 11.179-8.85 13.508-9.782 3.726-1.397 1.863 3.726 1.863 6.987 8.85-6.987 20.961-10.713 32.14-14.906" fill="#ff4057" fill-rule="nonzero" stroke="none" stroke-width="1" stroke-linecap="butt" stroke-linejoin="miter" stroke-miterlimit="10" stroke-dasharray="" stroke-dashoffset="0" font-family="none" font-weight="none" font-size="none" text-anchor="none" style="mix-blend-mode: normal" data-fill-palette-color="tertiary"></path></g><g transform="matrix(1,0,0,1,96.65822784810126,90)"><svg viewBox="0 0 126.68354430379748 180" height="180" width="126.68354430379748"><g><svg viewBox="0 0 126.68354430379748 180" height="180" width="126.68354430379748"><g><svg viewBox="0 0 126.68354430379748 180" height="180" width="126.68354430379748"><g><svg viewBox="0 0 126.68354430379748 180" height="180" width="126.68354430379748"><g id="textblocktransform"><svg viewBox="0 0 126.68354430379748 180" height="180" width="126.68354430379748" id="textblock"><g><svg viewBox="0 0 126.68354430379748 180" height="180" width="126.68354430379748"><g transform="matrix(1,0,0,1,0,0)"><svg width="126.68354430379748" viewBox="2.450000047683716 -38.400001525878906 27.799999237060547 39.5" height="180" data-palette-color="#ff4057"><path d="M5.75 1.1Q4.85 1.1 4.38 1.03 3.9 0.95 3.35 0.7L3.35 0.7Q2.75 0.4 2.45-0.15L2.45-0.15Q2.45-0.75 3-0.75L3-0.75Q3.55-0.75 4.4-0.4L4.4-0.4Q5.2 0 5.75 0L5.75 0Q6.85 0 7.78-0.9 8.7-1.8 9.2-3.25L9.2-3.25Q10.2-6.1 10.2-8.3L10.2-8.3Q10.2-10.75 9.5-13.25 8.8-15.75 7.65-17.95L7.65-17.95Q7.4-18.5 6.8-19.6L6.8-19.6Q5.55-22.1 4.9-23.5 4.25-24.9 3.75-26.6L3.75-26.6Q3.05-28.85 3.05-31.45L3.05-31.45Q3.05-33.1 3.58-34.63 4.1-36.15 5.25-37.25L5.25-37.25Q6.5-38.4 8.05-38.4L8.05-38.4Q8.65-38.4 9.5-37.93 10.35-37.45 10.35-37L10.35-37Q10.35-36.6 10.05-36.6L10.05-36.6Q9.75-36.6 9.25-36.85L9.25-36.85Q8.8-37.1 8.4-37.1L8.4-37.1Q7.25-37.1 6.38-36.25 5.5-35.4 5.1-34.15L5.1-34.15Q4.75-33.1 4.75-31.85L4.75-31.85Q4.75-29.9 5.25-27.83 5.75-25.75 6.6-23.95L6.6-23.95 8.35-20.3 8.85-19.25Q9.9-17.1 10.48-15.7 11.05-14.3 11.45-12.55L11.45-12.55Q12-10.2 12-8.05L12-8.05Q12-5.15 10.5-2.15L10.5-2.15Q9.75-0.7 8.5 0.2 7.25 1.1 5.75 1.1L5.75 1.1ZM23.2 0.6L22.65 0.15Q22.65-3.7 21.42-11.2 20.2-18.7 18.2-27.6L18.2-27.6 17.8-29.15 17.15-31.45Q16.85-32.5 16.85-32.75L16.85-32.75Q16.85-32.9 17.07-33.13 17.3-33.35 17.5-33.35L17.5-33.35Q18.2-33.35 18.6-31.8L18.6-31.8Q18.8-31.15 18.97-30.33 19.15-29.5 19.25-29.15L19.25-29.15Q19.35-28.4 19.4-28.25L19.4-28.25Q20.35-24.4 20.55-23.35L20.55-23.35 21.05-20.8 21.5-18.4 21.95-15.85Q22.1-14.5 22.35-13.5L22.35-13.5 23.1-8.6Q23.1-8.4 23.45-6.05L23.45-6.05 23.8-3.6Q24.8-6.85 25.5-13.5L25.5-13.5Q26.2-19.7 27.5-25.95L27.5-25.95Q28.6-31.35 29.05-33.8L29.05-33.8 29.7-34.05Q29.9-34 30.07-33.85 30.25-33.7 30.25-33.55L30.25-33.55Q30.25-32.45 29.8-30.55L29.8-30.55 29.5-29.25 28.65-25.3Q27.9-22.05 27.62-20.3 27.35-18.55 27-15.25L27-15.25 26.9-14.1Q26.65-11.4 26.52-10.45 26.4-9.5 25.95-8L25.95-8Q25.55-6.5 25.3-5.35L25.3-5.35 25.2-4.2Q25.1-2.45 24.8-1.1L24.8-1.1Q24.4 0.6 23.2 0.6L23.2 0.6ZM23.75-3.25L23.75-3.45 23.7-3.35 23.75-3.25Z" opacity="1" transform="matrix(1,0,0,1,0,0)" fill="#ff4057" class="wordmark-text-0" data-fill-palette-color="primary" id="text-0"></path></svg></g></svg></g></svg></g></svg></g><g></g></svg></g></svg></g></svg></g></svg></g><defs></defs></svg><rect width="320" height="360" fill="none" stroke="none" visibility="hidden"></rect></g></svg></g></svg>